<svg xmlns="http://www.w3.org/2000/svg" viewBox="0 0 21.57 33.07"><defs><style>.cls-1{fill:none;stroke:#f4cf46;stroke-linecap:round;stroke-linejoin:round;}</style></defs><title>资源 1</title><g id="图层_2" data-name="图层 2"><g id="图层_1-2" data-name="图层 1"><rect class="cls-1" x="1.45" y="22.59" width="0.32" height="9.98"/><rect class="cls-1" x="19.66" y="22.59" width="0.45" height="9.98"/><rect class="cls-1" x="5.69" y="22.75" width="0.55" height="7.51"/><rect class="cls-1" x="15.48" y="22.59" width="0.4" height="7.51"/><path class="cls-1" d="M9.82.5h1.92a7.18,7.18,0,0,1,7.18,7.18v8.47a0,0,0,0,1,0,0H2.64a0,0,0,0,1,0,0V7.68A7.18,7.18,0,0,1,9.82.5Z"/><path class="cls-1" d="M1.83,16.15H19.74a1.33,1.33,0,0,1,1.33,1.33v5.11a0,0,0,0,1,0,0H.5a0,0,0,0,1,0,0V17.48A1.33,1.33,0,0,1,1.83,16.15Z"/></g></g></svg>